<svg width="57" height="56" viewBox="0 0 57 56" fill="none" xmlns="http://www.w3.org/2000/svg">
<circle cx="28.7988" cy="28" r="28" fill="#C4C4C4"/>
<g clip-path="url(#clip0_185_1686)">
<path d="M36.3406 18.9674C36.7173 18.5872 37.2292 18.3715 37.7644 18.3676C38.2997 18.3636 38.8147 18.5717 39.197 18.9464C39.5793 19.321 39.7977 19.8318 39.8046 20.367C39.8114 20.9022 39.6061 21.4184 39.2336 21.8027L28.4536 35.279C28.2684 35.4784 28.0449 35.6385 27.7965 35.7496C27.5481 35.8607 27.2798 35.9206 27.0077 35.9257C26.7357 35.9308 26.4653 35.8811 26.2129 35.7794C25.9605 35.6778 25.7311 35.5263 25.5386 35.334L18.3913 28.1895C18.0115 27.8096 17.7982 27.2942 17.7983 26.757C17.7985 26.2197 18.012 25.7045 18.392 25.3247C18.772 24.9449 19.2873 24.7316 19.8246 24.7318C20.3618 24.7319 20.877 24.9454 21.2568 25.3254L26.9094 30.9794L36.2869 19.0307C36.304 19.0089 36.3223 18.9883 36.3419 18.9688L36.3406 18.9674Z" fill="white"/>
</g>
<defs>
<clipPath id="clip0_185_1686">
<rect width="22" height="22" fill="white" transform="translate(17.7988 16.9998)"/>
</clipPath>
</defs>
</svg>
