<svg width="57" height="56" viewBox="0 0 57 56" fill="none" xmlns="http://www.w3.org/2000/svg">
<circle cx="28.7988" cy="28" r="28" fill="#C4C4C4"/>
<path d="M25.7667 17.9013C25.2459 20.1795 26.7544 24.0596 29.3046 24.0596C31.8368 24.0596 33.3453 20.1795 32.8245 17.9013C32.4294 16.1571 30.8849 15.0002 29.3046 15.0002C27.7062 15.0002 26.1797 16.1571 25.7667 17.9013ZM18.3497 19.5032C17.9007 21.4254 19.1938 24.7181 21.3488 24.7181C23.5039 24.7181 24.7969 21.4254 24.3479 19.5032C24.0067 18.0259 22.6957 17.0292 21.3488 17.0292C20.0019 17.0292 18.6909 18.0259 18.3497 19.5032ZM34.2612 19.5032C33.8122 21.4254 35.1053 24.7181 37.2424 24.7181C39.3974 24.7181 40.6904 21.4254 40.2415 19.5032C39.9003 18.0259 38.5893 17.0292 37.2424 17.0292C35.9134 17.0292 34.6024 18.0259 34.2612 19.5032ZM33.2016 39.8466L35.4465 32.1934C36.8473 27.7616 34.1714 25.0385 29.3046 25.0385C24.4198 25.0385 21.7439 27.7616 23.1267 32.1934L25.3896 39.8466C25.8026 41.1281 27.5087 42.0002 29.3046 42.0002C31.0645 42.0002 32.7886 41.1281 33.2016 39.8466ZM22.2468 26.2665C21.3668 27.459 20.5227 29.5236 21.4925 32.6561L23.5039 39.4017C22.8933 39.7576 22.1211 39.9534 21.3488 39.9534C19.8223 39.9534 18.3856 39.2237 18.0264 38.1202L16.1049 31.6238C14.9375 27.8684 17.2003 25.5724 21.3488 25.5724C21.8337 25.5724 22.3186 25.608 22.7676 25.6792C22.588 25.8572 22.4084 26.0708 22.2468 26.2665ZM37.2424 25.5724C41.3908 25.5724 43.6716 27.8684 42.4863 31.6238L40.5647 38.1202C40.2056 39.2237 38.7689 39.9534 37.2424 39.9534C36.4701 39.9534 35.6979 39.7576 35.0873 39.4017L37.0807 32.6917C38.0685 29.5236 37.2244 27.459 36.3265 26.2665C36.1828 26.0708 36.0032 25.8572 35.8236 25.6792C36.2726 25.608 36.7395 25.5724 37.2424 25.5724Z" fill="white"/>
</svg>
