<svg width="22" height="19" viewBox="0 0 22 19" fill="none" xmlns="http://www.w3.org/2000/svg">
<path d="M13.8568 0.670732L13.8568 0.670749L21.0879 7.08257C21.0879 7.08259 21.0879 7.0826 21.0879 7.08261C21.3188 7.28743 21.3186 7.66238 21.0879 7.86701L13.8568 14.2795L13.8568 14.2795C13.5615 14.5413 13.058 14.3487 13.058 13.8873V10.1784V9.67093L12.5506 9.67843C10.9415 9.7022 9.53521 9.82252 8.36133 10.0951C7.18879 10.3674 6.21207 10.7997 5.49891 11.4743C4.02968 12.8639 3.88042 15.0597 4.82453 18.16L5.30285 18.0144L4.82454 18.16C4.84333 18.2217 4.83678 18.2658 4.82372 18.2989C4.80908 18.3359 4.77965 18.3742 4.73519 18.4041C4.64537 18.4644 4.5387 18.4671 4.44852 18.3998L4.14931 18.8003L4.44851 18.3997C2.75032 17.1314 1.22559 14.7013 1.22559 12.2979C1.22559 10.7609 1.53826 9.562 2.07972 8.62116C2.62018 7.68205 3.40651 6.96882 4.40461 6.42982C6.42339 5.33961 9.2751 4.97879 12.5639 4.94013L13.058 4.93432V4.44016V1.06293C13.058 0.601678 13.5617 0.408997 13.8568 0.670732Z" stroke="#7C7C7C"/>
</svg>
