<svg width="57" height="56" viewBox="0 0 57 56" fill="none" xmlns="http://www.w3.org/2000/svg">
<circle cx="28.7988" cy="28" r="28" fill="#C4C4C4"/>
<path d="M39.5478 35.9324C40.984 34.2045 41.9828 32.1561 42.4598 29.9606C42.9369 27.765 42.8781 25.4868 42.2885 23.3188C41.6989 21.1508 40.5958 19.1566 39.0725 17.5051C37.5492 15.8535 35.6505 14.5931 33.5371 13.8306C31.4237 13.068 29.1577 12.8257 26.9308 13.1241C24.7039 13.4225 22.5816 14.2528 20.7435 15.5449C18.9054 16.837 17.4056 18.5527 16.3708 20.5471C15.3361 22.5414 14.7969 24.7556 14.7988 27.0024C14.7996 30.2686 15.9506 33.4302 18.0498 35.9324L18.0298 35.9494C18.0998 36.0334 18.1798 36.1054 18.2518 36.1884C18.3418 36.2914 18.4388 36.3884 18.5318 36.4884C18.8118 36.7924 19.0998 37.0844 19.4018 37.3584C19.4938 37.4424 19.5888 37.5204 19.6818 37.6004C20.0018 37.8764 20.3308 38.1384 20.6718 38.3824C20.7158 38.4124 20.7558 38.4514 20.7998 38.4824V38.4704C23.1419 40.1185 25.9359 41.0031 28.7998 41.0031C31.6637 41.0031 34.4577 40.1185 36.7998 38.4704V38.4824C36.8438 38.4514 36.8828 38.4124 36.9278 38.3824C37.2678 38.1374 37.5978 37.8764 37.9178 37.6004C38.0108 37.5204 38.1058 37.4414 38.1978 37.3584C38.4998 37.0834 38.7878 36.7924 39.0678 36.4884C39.1608 36.3884 39.2568 36.2914 39.3478 36.1884C39.4188 36.1054 39.4998 36.0334 39.5698 35.9484L39.5478 35.9324ZM28.7988 19.0024C29.6888 19.0024 30.5589 19.2663 31.2989 19.7608C32.0389 20.2552 32.6157 20.958 32.9563 21.7803C33.2969 22.6026 33.386 23.5074 33.2124 24.3803C33.0387 25.2532 32.6101 26.055 31.9808 26.6844C31.3515 27.3137 30.5497 27.7423 29.6767 27.9159C28.8038 28.0895 27.899 28.0004 27.0768 27.6598C26.2545 27.3192 25.5517 26.7425 25.0572 26.0024C24.5628 25.2624 24.2988 24.3924 24.2988 23.5024C24.2988 22.3089 24.7729 21.1643 25.6169 20.3204C26.4608 19.4765 27.6054 19.0024 28.7988 19.0024ZM20.8058 35.9324C20.8232 34.6193 21.3568 33.3659 22.2912 32.4433C23.2256 31.5207 24.4857 31.0031 25.7988 31.0024H31.7988C33.112 31.0031 34.3721 31.5207 35.3065 32.4433C36.2409 33.3659 36.7745 34.6193 36.7918 35.9324C34.5987 37.9087 31.7511 39.0025 28.7988 39.0025C25.8466 39.0025 22.999 37.9087 20.8058 35.9324Z" fill="white"/>
</svg>
