<svg width="28" height="28" viewBox="0 0 28 28" fill="none" xmlns="http://www.w3.org/2000/svg">
<path d="M19.834 5.83325C20.4528 5.83325 21.0463 6.07908 21.4839 6.51667C21.9215 6.95425 22.1673 7.54775 22.1673 8.16659V23.3333C22.1673 23.9521 21.9215 24.5456 21.4839 24.9832C21.0463 25.4208 20.4528 25.6666 19.834 25.6666H11.6673C11.0485 25.6666 10.455 25.4208 10.0174 24.9832C9.57982 24.5456 9.33398 23.9521 9.33398 23.3333H19.834V5.83325Z" fill="#555555"/>
<path d="M15.1673 4.66659H5.83398C5.83398 4.04775 6.07982 3.45425 6.5174 3.01667C6.95499 2.57908 7.54848 2.33325 8.16732 2.33325H15.1673C15.7862 2.33325 16.3796 2.57908 16.8172 3.01667C17.2548 3.45425 17.5007 4.04775 17.5007 4.66659V18.6666C17.5007 19.2854 17.2548 19.8789 16.8172 20.3165C16.3796 20.7541 15.7862 20.9999 15.1673 20.9999V4.66659Z" fill="#555555"/>
<path d="M8.16732 18.6666H17.5007C17.5007 19.2854 17.2548 19.8789 16.8172 20.3165C16.3796 20.7541 15.7862 20.9999 15.1673 20.9999H8.16732C7.54848 20.9999 6.95499 20.7541 6.5174 20.3165C6.07982 19.8789 5.83398 19.2854 5.83398 18.6666V4.66659C5.83398 4.04775 6.07982 3.45425 6.5174 3.01667C6.95499 2.57908 7.54848 2.33325 8.16732 2.33325V18.6666Z" fill="#555555"/>
</svg>
