<svg width="21" height="31" viewBox="0 0 21 31" fill="none" xmlns="http://www.w3.org/2000/svg">
<path d="M5.6127 13.2409L12.3716 21.1488H8.41007H8.06007V21.4988C8.06007 23.0404 8.583 24.5278 9.52678 25.632C10.472 26.7379 11.7669 27.3724 13.1311 27.3724C14.4954 27.3724 15.7903 26.7379 16.7355 25.632C17.6793 24.5278 18.2022 23.0404 18.2022 21.4988V4.27866L20.6496 1.04294V2.06376V21.4988C20.6496 23.8638 19.8461 26.1229 18.4289 27.7811C17.0131 29.4375 15.1058 30.3549 13.1311 30.3549C11.1564 30.3549 9.24913 29.4375 7.83337 27.7811C6.41616 26.1229 5.6127 23.8638 5.6127 21.4988V13.2409Z" stroke="url(#paint0_linear_2549:25438)" stroke-width="0.7"/>
<path d="M4.99379 3.43556V3.80523L5.3629 3.78504C5.93007 3.75401 7.34257 3.75366 8.92631 4.18704C10.5088 4.62008 12.239 5.47923 13.483 7.14996C14.9201 9.07991 15.5345 12.0095 15.7785 14.7994C15.9259 16.4851 15.9364 18.0881 15.9218 19.3522C15.9095 19.3206 15.897 19.2886 15.8843 19.2564C15.4244 18.086 14.7339 16.5224 13.8125 14.9561C12.8923 13.3919 11.7332 11.8102 10.3311 10.6162C8.92656 9.42024 7.26201 8.60048 5.34379 8.60048H4.99379V8.95048V11.4222L2.67295 8.9989L2.42017 9.24099L2.67294 8.9989L0.464551 6.69307L2.65151 3.95309L4.99379 1.0185V3.43556Z" stroke="url(#paint1_linear_2549:25438)" stroke-width="0.7"/>
<defs>
<linearGradient id="paint0_linear_2549:25438" x1="13.1311" y1="0" x2="13.1311" y2="30.7049" gradientUnits="userSpaceOnUse">
<stop stop-color="#9900FF"/>
<stop offset="1"/>
</linearGradient>
<linearGradient id="paint1_linear_2549:25438" x1="8.13833" y1="0.0189285" x2="8.13833" y2="21.3166" gradientUnits="userSpaceOnUse">
<stop stop-color="#9900FF"/>
<stop offset="1"/>
</linearGradient>
</defs>
</svg>
