<svg width="22" height="20" viewBox="0 0 22 20" fill="none" xmlns="http://www.w3.org/2000/svg">
<path d="M10.6162 0.94356C10.7696 0.490858 11.4099 0.49086 11.5633 0.943558L13.313 6.10699C13.5194 6.71588 14.0908 7.12557 14.7337 7.12557H20.3036C20.7931 7.12557 20.991 7.75607 20.5894 8.03584L16.1566 11.1238C15.6086 11.5055 15.379 12.2035 15.5934 12.836L17.3034 17.8824C17.4583 18.3394 16.94 18.7289 16.5441 18.4531L11.9471 15.2508C11.4319 14.8918 10.7476 14.8918 10.2323 15.2508L5.63533 18.4531C5.23941 18.7289 4.72112 18.3394 4.87598 17.8824L6.58607 12.836C6.8004 12.2035 6.57079 11.5055 6.02282 11.1238L1.59 8.03584C1.1884 7.75607 1.38636 7.12557 1.8758 7.12557H7.44575C8.08864 7.12557 8.66005 6.71588 8.86639 6.10699L10.6162 0.94356Z" stroke="#7C7C7C"/>
</svg>
